%TF.GenerationSoftware,KiCad,Pcbnew,7.0.2*%
%TF.CreationDate,2024-08-09T14:52:10-04:00*%
%TF.ProjectId,NewPCB,4e657750-4342-42e6-9b69-6361645f7063,rev?*%
%TF.SameCoordinates,Original*%
%TF.FileFunction,Copper,L1,Top*%
%TF.FilePolarity,Positive*%
%FSLAX46Y46*%
G04 Gerber Fmt 4.6, Leading zero omitted, Abs format (unit mm)*
G04 Created by KiCad (PCBNEW 7.0.2) date 2024-08-09 14:52:10*
%MOMM*%
%LPD*%
G01*
G04 APERTURE LIST*
G04 Aperture macros list*
%AMRoundRect*
0 Rectangle with rounded corners*
0 $1 Rounding radius*
0 $2 $3 $4 $5 $6 $7 $8 $9 X,Y pos of 4 corners*
0 Add a 4 corners polygon primitive as box body*
4,1,4,$2,$3,$4,$5,$6,$7,$8,$9,$2,$3,0*
0 Add four circle primitives for the rounded corners*
1,1,$1+$1,$2,$3*
1,1,$1+$1,$4,$5*
1,1,$1+$1,$6,$7*
1,1,$1+$1,$8,$9*
0 Add four rect primitives between the rounded corners*
20,1,$1+$1,$2,$3,$4,$5,0*
20,1,$1+$1,$4,$5,$6,$7,0*
20,1,$1+$1,$6,$7,$8,$9,0*
20,1,$1+$1,$8,$9,$2,$3,0*%
G04 Aperture macros list end*
%TA.AperFunction,NonConductor*%
%ADD10C,1.016000*%
%TD*%
%TA.AperFunction,NonConductor*%
%ADD11C,0.508000*%
%TD*%
%TA.AperFunction,SMDPad,CuDef*%
%ADD12RoundRect,0.147500X0.147500X0.172500X-0.147500X0.172500X-0.147500X-0.172500X0.147500X-0.172500X0*%
%TD*%
%TA.AperFunction,ComponentPad*%
%ADD13O,0.900000X1.400000*%
%TD*%
%TA.AperFunction,ComponentPad*%
%ADD14RoundRect,0.225000X0.225000X0.475000X-0.225000X0.475000X-0.225000X-0.475000X0.225000X-0.475000X0*%
%TD*%
%TA.AperFunction,SMDPad,CuDef*%
%ADD15RoundRect,0.140000X0.140000X0.170000X-0.140000X0.170000X-0.140000X-0.170000X0.140000X-0.170000X0*%
%TD*%
%TA.AperFunction,SMDPad,CuDef*%
%ADD16RoundRect,0.140000X-0.140000X-0.170000X0.140000X-0.170000X0.140000X0.170000X-0.140000X0.170000X0*%
%TD*%
%TA.AperFunction,SMDPad,CuDef*%
%ADD17RoundRect,0.135000X0.135000X0.185000X-0.135000X0.185000X-0.135000X-0.185000X0.135000X-0.185000X0*%
%TD*%
%TA.AperFunction,ComponentPad*%
%ADD18R,0.900000X0.500000*%
%TD*%
%TA.AperFunction,ConnectorPad*%
%ADD19R,0.500000X0.500000*%
%TD*%
%TA.AperFunction,SMDPad,CuDef*%
%ADD20RoundRect,0.135000X0.185000X-0.135000X0.185000X0.135000X-0.185000X0.135000X-0.185000X-0.135000X0*%
%TD*%
%TA.AperFunction,SMDPad,CuDef*%
%ADD21RoundRect,0.147500X-0.172500X0.147500X-0.172500X-0.147500X0.172500X-0.147500X0.172500X0.147500X0*%
%TD*%
%TA.AperFunction,SMDPad,CuDef*%
%ADD22RoundRect,0.140000X0.170000X-0.140000X0.170000X0.140000X-0.170000X0.140000X-0.170000X-0.140000X0*%
%TD*%
%TA.AperFunction,SMDPad,CuDef*%
%ADD23R,1.800000X1.000000*%
%TD*%
%TA.AperFunction,SMDPad,CuDef*%
%ADD24R,2.500000X2.500000*%
%TD*%
%TA.AperFunction,SMDPad,CuDef*%
%ADD25RoundRect,0.062500X0.350000X-0.062500X0.350000X0.062500X-0.350000X0.062500X-0.350000X-0.062500X0*%
%TD*%
%TA.AperFunction,SMDPad,CuDef*%
%ADD26RoundRect,0.062500X0.062500X-0.350000X0.062500X0.350000X-0.062500X0.350000X-0.062500X-0.350000X0*%
%TD*%
%TA.AperFunction,SMDPad,CuDef*%
%ADD27RoundRect,0.147500X-0.147500X-0.172500X0.147500X-0.172500X0.147500X0.172500X-0.147500X0.172500X0*%
%TD*%
%TA.AperFunction,ViaPad*%
%ADD28C,0.800000*%
%TD*%
%TA.AperFunction,Conductor*%
%ADD29C,0.254000*%
%TD*%
%TA.AperFunction,Conductor*%
%ADD30C,0.508000*%
%TD*%
G04 APERTURE END LIST*
D10*
X123190000Y-81528500D02*
X125327750Y-81539500D01*
X124206000Y-80539250D02*
X124195000Y-81512750D01*
D11*
X126260000Y-80603000D02*
X126238000Y-82550000D01*
%TA.AperFunction,EtchedComponent*%
%TO.C,AE1*%
G36*
X128710000Y-78093000D02*
G01*
X130710000Y-78093000D01*
X130710000Y-75453000D01*
X133410000Y-75453000D01*
X133410000Y-78093000D01*
X135410000Y-78093000D01*
X135410000Y-75453000D01*
X138110000Y-75453000D01*
X138110000Y-79893000D01*
X137610000Y-79893000D01*
X137610000Y-75953000D01*
X135910000Y-75953000D01*
X135910000Y-78593000D01*
X132910000Y-78593000D01*
X132910000Y-75953000D01*
X131210000Y-75953000D01*
X131210000Y-78593000D01*
X128210000Y-78593000D01*
X128210000Y-75953000D01*
X126510000Y-75953000D01*
X126510000Y-80853000D01*
X126010000Y-80853000D01*
X126010000Y-75953000D01*
X124610000Y-75953000D01*
X124610000Y-80853000D01*
X123710000Y-80853000D01*
X123710000Y-80609785D01*
X124012417Y-80609785D01*
X124022258Y-80657395D01*
X124046326Y-80699797D01*
X124084269Y-80732581D01*
X124092181Y-80736935D01*
X124134844Y-80749043D01*
X124183363Y-80748300D01*
X124228878Y-80735400D01*
X124247489Y-80724787D01*
X124281132Y-80689553D01*
X124301691Y-80644368D01*
X124308222Y-80594842D01*
X124299782Y-80546583D01*
X124282888Y-80514357D01*
X124247628Y-80481687D01*
X124202318Y-80461592D01*
X124152733Y-80455018D01*
X124104647Y-80462908D01*
X124071755Y-80479814D01*
X124036815Y-80516584D01*
X124017153Y-80561378D01*
X124012417Y-80609785D01*
X123710000Y-80609785D01*
X123710000Y-75453000D01*
X128710000Y-75453000D01*
X128710000Y-78093000D01*
G37*
%TD.AperFunction*%
%TD*%
D12*
%TO.P,L3,2,2*%
%TO.N,Net-(C8-Pad1)*%
X127310000Y-83683000D03*
%TO.P,L3,1,1*%
%TO.N,Net-(U1-ANT1)*%
X128280000Y-83683000D03*
%TD*%
D13*
%TO.P,J1,8,Pin_8*%
%TO.N,GND*%
X125362000Y-93726000D03*
%TO.P,J1,7,Pin_7*%
%TO.N,Net-(J1-Pin_7)*%
X126612000Y-93726000D03*
%TO.P,J1,6,Pin_6*%
%TO.N,Net-(J1-Pin_6)*%
X127862000Y-93726000D03*
%TO.P,J1,5,Pin_5*%
%TO.N,Net-(J1-Pin_5)*%
X129112000Y-93726000D03*
%TO.P,J1,4,Pin_4*%
%TO.N,Net-(J1-Pin_4)*%
X130362000Y-93726000D03*
%TO.P,J1,3,Pin_3*%
%TO.N,Net-(J1-Pin_3)*%
X131612000Y-93726000D03*
%TO.P,J1,2,Pin_2*%
%TO.N,Net-(J1-Pin_2)*%
X132862000Y-93726000D03*
D14*
%TO.P,J1,1,Pin_1*%
%TO.N,VDD*%
X134112000Y-93726000D03*
%TD*%
D15*
%TO.P,C11,2*%
%TO.N,Net-(AE1-A)*%
X127282000Y-82550000D03*
%TO.P,C11,1*%
%TO.N,GND*%
X128242000Y-82550000D03*
%TD*%
%TO.P,C3,2*%
%TO.N,GND*%
X125250000Y-88900000D03*
%TO.P,C3,1*%
%TO.N,VDD*%
X126210000Y-88900000D03*
%TD*%
%TO.P,C2,2*%
%TO.N,GND*%
X125250000Y-90297000D03*
%TO.P,C2,1*%
%TO.N,Net-(U1-DVDD)*%
X126210000Y-90297000D03*
%TD*%
D12*
%TO.P,L2,2,2*%
%TO.N,Net-(U1-VDD_PA)*%
X127287000Y-84953000D03*
%TO.P,L2,1,1*%
%TO.N,Net-(U1-ANT2)*%
X128257000Y-84953000D03*
%TD*%
D16*
%TO.P,C10,2*%
%TO.N,Net-(C10-Pad2)*%
X124051000Y-82550000D03*
%TO.P,C10,1*%
%TO.N,GND*%
X123091000Y-82550000D03*
%TD*%
D17*
%TO.P,R1,2*%
%TO.N,GND*%
X125220000Y-87630000D03*
%TO.P,R1,1*%
%TO.N,Net-(U1-IREF)*%
X126240000Y-87630000D03*
%TD*%
D18*
%TO.P,AE1,2*%
%TO.N,N/C*%
X124160000Y-80603000D03*
D19*
%TO.P,AE1,1,A*%
%TO.N,Net-(AE1-A)*%
X126260000Y-80603000D03*
%TD*%
D20*
%TO.P,R2,2*%
%TO.N,Net-(U1-XC1)*%
X135636000Y-87374000D03*
%TO.P,R2,1*%
%TO.N,Net-(U1-XC2)*%
X135636000Y-88394000D03*
%TD*%
D21*
%TO.P,L1,2,2*%
%TO.N,Net-(U1-ANT2)*%
X129550000Y-84930000D03*
%TO.P,L1,1,1*%
%TO.N,Net-(U1-ANT1)*%
X129550000Y-83960000D03*
%TD*%
D16*
%TO.P,C1,2*%
%TO.N,GND*%
X133957000Y-90678000D03*
%TO.P,C1,1*%
%TO.N,VDD*%
X132997000Y-90678000D03*
%TD*%
D22*
%TO.P,C9,2*%
%TO.N,Net-(C10-Pad2)*%
X124089000Y-83711000D03*
%TO.P,C9,1*%
%TO.N,GND*%
X124089000Y-84671000D03*
%TD*%
D23*
%TO.P,Y1,2,2*%
%TO.N,Net-(U1-XC1)*%
X133731000Y-86634000D03*
%TO.P,Y1,1,1*%
%TO.N,Net-(U1-XC2)*%
X133731000Y-89134000D03*
%TD*%
D15*
%TO.P,C8,2*%
%TO.N,Net-(C10-Pad2)*%
X125250000Y-83820000D03*
%TO.P,C8,1*%
%TO.N,Net-(C8-Pad1)*%
X126210000Y-83820000D03*
%TD*%
D16*
%TO.P,C5,2*%
%TO.N,GND*%
X136497000Y-86233000D03*
%TO.P,C5,1*%
%TO.N,Net-(U1-XC1)*%
X135537000Y-86233000D03*
%TD*%
%TO.P,C4,2*%
%TO.N,GND*%
X136497000Y-89535000D03*
%TO.P,C4,1*%
%TO.N,Net-(U1-XC2)*%
X135537000Y-89535000D03*
%TD*%
D15*
%TO.P,C7,2*%
%TO.N,GND*%
X125250000Y-84963000D03*
%TO.P,C7,1*%
%TO.N,Net-(U1-VDD_PA)*%
X126210000Y-84963000D03*
%TD*%
D24*
%TO.P,U1,21*%
%TO.N,N/C*%
X129550000Y-88509000D03*
D25*
%TO.P,U1,20,VSS*%
%TO.N,GND*%
X127612500Y-89509000D03*
%TO.P,U1,19,DVDD*%
%TO.N,Net-(U1-DVDD)*%
X127612500Y-89009000D03*
%TO.P,U1,18,VDD*%
%TO.N,VDD*%
X127612500Y-88509000D03*
%TO.P,U1,17,VSS*%
%TO.N,GND*%
X127612500Y-88009000D03*
%TO.P,U1,16,IREF*%
%TO.N,Net-(U1-IREF)*%
X127612500Y-87509000D03*
D26*
%TO.P,U1,15,VDD*%
%TO.N,VDD*%
X128550000Y-86571500D03*
%TO.P,U1,14,VSS*%
%TO.N,GND*%
X129050000Y-86571500D03*
%TO.P,U1,13,ANT2*%
%TO.N,Net-(U1-ANT2)*%
X129550000Y-86571500D03*
%TO.P,U1,12,ANT1*%
%TO.N,Net-(U1-ANT1)*%
X130050000Y-86571500D03*
%TO.P,U1,11,VDD_PA*%
%TO.N,Net-(U1-VDD_PA)*%
X130550000Y-86571500D03*
D25*
%TO.P,U1,10,XC1*%
%TO.N,Net-(U1-XC1)*%
X131487500Y-87509000D03*
%TO.P,U1,9,XC2*%
%TO.N,Net-(U1-XC2)*%
X131487500Y-88009000D03*
%TO.P,U1,8,VSS*%
%TO.N,GND*%
X131487500Y-88509000D03*
%TO.P,U1,7,VDD*%
%TO.N,VDD*%
X131487500Y-89009000D03*
%TO.P,U1,6,IRQ*%
%TO.N,Net-(J1-Pin_7)*%
X131487500Y-89509000D03*
D26*
%TO.P,U1,5,MISO*%
%TO.N,Net-(J1-Pin_3)*%
X130550000Y-90446500D03*
%TO.P,U1,4,MOSI*%
%TO.N,Net-(J1-Pin_2)*%
X130050000Y-90446500D03*
%TO.P,U1,3,SCK*%
%TO.N,Net-(J1-Pin_4)*%
X129550000Y-90446500D03*
%TO.P,U1,2,CSN*%
%TO.N,Net-(J1-Pin_5)*%
X129050000Y-90446500D03*
%TO.P,U1,1,CE*%
%TO.N,Net-(J1-Pin_6)*%
X128550000Y-90446500D03*
%TD*%
D15*
%TO.P,C6,2*%
%TO.N,GND*%
X125232000Y-86096000D03*
%TO.P,C6,1*%
%TO.N,Net-(U1-VDD_PA)*%
X126192000Y-86096000D03*
%TD*%
D27*
%TO.P,L4,2,2*%
%TO.N,Net-(AE1-A)*%
X126215000Y-82550000D03*
%TO.P,L4,1,1*%
%TO.N,Net-(C10-Pad2)*%
X125245000Y-82550000D03*
%TD*%
D28*
%TO.N,*%
X128270000Y-81661000D03*
%TO.N,GND*%
X128976353Y-89038859D03*
X130054300Y-89078058D03*
X130054300Y-87902115D03*
X128937155Y-87921714D03*
%TO.N,*%
X123116238Y-81650019D03*
X125476000Y-81534000D03*
X131572000Y-82677000D03*
X130429000Y-82677000D03*
X129413000Y-82677000D03*
X134874000Y-83566000D03*
X133731000Y-83566000D03*
X132715000Y-83566000D03*
X134857829Y-82654018D03*
X133714829Y-82654018D03*
X132698829Y-82654018D03*
X131572000Y-81661000D03*
X130429000Y-81661000D03*
X129413000Y-81661000D03*
X134874000Y-81661000D03*
X133731000Y-81661000D03*
X132715000Y-81661000D03*
X138049000Y-83566000D03*
X136906000Y-83566000D03*
X135890000Y-83566000D03*
X138065170Y-82636736D03*
X136922170Y-82636736D03*
X135906170Y-82636736D03*
X135890000Y-81661000D03*
X136906000Y-81661000D03*
X138049000Y-81661000D03*
%TO.N,VDD*%
X126619000Y-88509000D03*
X128020866Y-86619839D03*
%TO.N,Net-(J1-Pin_7)*%
X131445000Y-90551000D03*
%TO.N,Net-(J1-Pin_3)*%
X131612000Y-93726000D03*
X131191000Y-91694000D03*
%TO.N,Net-(U1-VDD_PA)*%
X127381000Y-85852000D03*
X130839321Y-85613496D03*
%TD*%
D29*
%TO.N,GND*%
X127385234Y-89528150D02*
X129004484Y-89528150D01*
X127381000Y-88011000D02*
X129000250Y-88011000D01*
X129032000Y-86487000D02*
X129032000Y-88106250D01*
X131619625Y-88519000D02*
X130000375Y-88519000D01*
%TO.N,VDD*%
X128069205Y-86571500D02*
X128020866Y-86619839D01*
X128550000Y-86571500D02*
X128069205Y-86571500D01*
X132969000Y-90706000D02*
X132997000Y-90678000D01*
X132969000Y-91948000D02*
X132969000Y-90706000D01*
X134112000Y-93091000D02*
X132969000Y-91948000D01*
X134112000Y-93726000D02*
X134112000Y-93091000D01*
%TO.N,Net-(J1-Pin_7)*%
X131487500Y-90508500D02*
X131445000Y-90551000D01*
X131487500Y-89509000D02*
X131487500Y-90508500D01*
%TO.N,Net-(J1-Pin_3)*%
X130550000Y-91053000D02*
X131191000Y-91694000D01*
X130550000Y-90446500D02*
X130550000Y-91053000D01*
%TO.N,Net-(J1-Pin_2)*%
X132862000Y-93272000D02*
X132862000Y-93726000D01*
X132173000Y-92583000D02*
X132862000Y-93272000D01*
X130556000Y-92583000D02*
X132173000Y-92583000D01*
X130050000Y-92077000D02*
X130556000Y-92583000D01*
X130050000Y-90446500D02*
X130050000Y-92077000D01*
X132862000Y-93238000D02*
X132862000Y-93726000D01*
%TO.N,Net-(J1-Pin_4)*%
X129540000Y-92450000D02*
X130362000Y-93272000D01*
X129540000Y-90456500D02*
X129540000Y-92450000D01*
X130362000Y-93272000D02*
X130362000Y-93726000D01*
X129550000Y-90446500D02*
X129540000Y-90456500D01*
%TO.N,Net-(J1-Pin_5)*%
X129050000Y-93664000D02*
X129112000Y-93726000D01*
X129050000Y-90446500D02*
X129050000Y-93664000D01*
%TO.N,Net-(J1-Pin_6)*%
X127862000Y-91134500D02*
X127862000Y-93726000D01*
X128550000Y-90446500D02*
X127862000Y-91134500D01*
%TO.N,Net-(U1-XC1)*%
X135537000Y-87275000D02*
X135636000Y-87374000D01*
X135537000Y-86233000D02*
X135537000Y-87275000D01*
X135136000Y-86634000D02*
X135537000Y-86233000D01*
X133731000Y-86634000D02*
X135136000Y-86634000D01*
%TO.N,Net-(U1-XC2)*%
X135537000Y-89535000D02*
X135537000Y-88493000D01*
X135537000Y-88493000D02*
X135636000Y-88394000D01*
X135136000Y-89134000D02*
X135537000Y-89535000D01*
X133731000Y-89134000D02*
X135136000Y-89134000D01*
%TO.N,VDD*%
X132504000Y-89562164D02*
X132504000Y-90185000D01*
X132504000Y-90185000D02*
X132997000Y-90678000D01*
X131950836Y-89009000D02*
X132504000Y-89562164D01*
X131487500Y-89009000D02*
X131950836Y-89009000D01*
%TO.N,Net-(U1-XC2)*%
X132606000Y-88009000D02*
X133731000Y-89134000D01*
X131487500Y-88009000D02*
X132606000Y-88009000D01*
%TO.N,Net-(U1-XC1)*%
X132362500Y-86634000D02*
X133731000Y-86634000D01*
X131487500Y-87509000D02*
X132362500Y-86634000D01*
%TO.N,Net-(U1-DVDD)*%
X127149164Y-89009000D02*
X126210000Y-89948164D01*
X127612500Y-89009000D02*
X127149164Y-89009000D01*
X126210000Y-89948164D02*
X126210000Y-90297000D01*
%TO.N,VDD*%
X126601000Y-88509000D02*
X126210000Y-88900000D01*
X127612500Y-88509000D02*
X126601000Y-88509000D01*
%TO.N,Net-(U1-IREF)*%
X126361000Y-87509000D02*
X126240000Y-87630000D01*
X127612500Y-87509000D02*
X126361000Y-87509000D01*
%TO.N,Net-(U1-VDD_PA)*%
X127381000Y-85047000D02*
X127287000Y-84953000D01*
X127381000Y-85852000D02*
X127381000Y-85047000D01*
X130550000Y-85902817D02*
X130839321Y-85613496D01*
X130550000Y-86571500D02*
X130550000Y-85902817D01*
%TO.N,Net-(U1-ANT2)*%
X129550000Y-86571500D02*
X129550000Y-84930000D01*
%TO.N,Net-(U1-ANT1)*%
X129934000Y-83960000D02*
X129550000Y-83960000D01*
X130197000Y-84223000D02*
X129934000Y-83960000D01*
X130197000Y-85274044D02*
X130197000Y-84223000D01*
X130050000Y-86571500D02*
X130050000Y-85421044D01*
X130050000Y-85421044D02*
X130197000Y-85274044D01*
D30*
%TO.N,Net-(AE1-A)*%
X126215000Y-82550000D02*
X127282000Y-82550000D01*
%TO.N,Net-(U1-VDD_PA)*%
X127287000Y-84953000D02*
X127371000Y-84953000D01*
X126192000Y-86096000D02*
X126192000Y-84981000D01*
X126192000Y-84981000D02*
X126210000Y-84963000D01*
X127371000Y-84953000D02*
X127381000Y-84963000D01*
X127381000Y-84963000D02*
X126210000Y-84963000D01*
%TO.N,Net-(C8-Pad1)*%
X126210000Y-83820000D02*
X127173000Y-83820000D01*
X127173000Y-83820000D02*
X127310000Y-83683000D01*
%TO.N,Net-(C10-Pad2)*%
X124051000Y-83673000D02*
X124089000Y-83711000D01*
X125245000Y-82550000D02*
X125245000Y-83815000D01*
X125245000Y-83815000D02*
X125250000Y-83820000D01*
X125141000Y-83711000D02*
X125250000Y-83820000D01*
X124051000Y-82550000D02*
X124051000Y-83673000D01*
X124089000Y-83711000D02*
X125141000Y-83711000D01*
%TO.N,Net-(U1-ANT1)*%
X128280000Y-83683000D02*
X129273000Y-83683000D01*
X129273000Y-83683000D02*
X129550000Y-83960000D01*
%TO.N,Net-(U1-ANT2)*%
X128257000Y-84953000D02*
X129527000Y-84953000D01*
X129527000Y-84953000D02*
X129550000Y-84930000D01*
%TD*%
%TA.AperFunction,Conductor*%
%TO.N,GND*%
G36*
X122990776Y-82543969D02*
G01*
X123021592Y-82550519D01*
X123146500Y-82550519D01*
X123213539Y-82570204D01*
X123259294Y-82623008D01*
X123270500Y-82674519D01*
X123270500Y-82784690D01*
X123270690Y-82787110D01*
X123270691Y-82787124D01*
X123273357Y-82820994D01*
X123291576Y-82883701D01*
X123296500Y-82918297D01*
X123296500Y-83400237D01*
X123291576Y-83434833D01*
X123281357Y-83470005D01*
X123278691Y-83503875D01*
X123278690Y-83503890D01*
X123278500Y-83506310D01*
X123278500Y-83915690D01*
X123278690Y-83918110D01*
X123278691Y-83918124D01*
X123281357Y-83951996D01*
X123326504Y-84107391D01*
X123326505Y-84107393D01*
X123326506Y-84107395D01*
X123338910Y-84128369D01*
X123356093Y-84196092D01*
X123338912Y-84254609D01*
X123326968Y-84274805D01*
X123284496Y-84421000D01*
X123590647Y-84421000D01*
X123653768Y-84438268D01*
X123662605Y-84443494D01*
X123818003Y-84488642D01*
X123818007Y-84488643D01*
X123854310Y-84491500D01*
X123856755Y-84491500D01*
X124214999Y-84491500D01*
X124282038Y-84511185D01*
X124327793Y-84563989D01*
X124338999Y-84615500D01*
X124338999Y-85449790D01*
X124359913Y-85448145D01*
X124386555Y-85440405D01*
X124456424Y-85440604D01*
X124515095Y-85478545D01*
X124543939Y-85542183D01*
X124533798Y-85611313D01*
X124527883Y-85622601D01*
X124499968Y-85669803D01*
X124454855Y-85825082D01*
X124453209Y-85845999D01*
X124453210Y-85846000D01*
X124982000Y-85846000D01*
X124982000Y-85315362D01*
X125000000Y-85254061D01*
X125000000Y-84837000D01*
X125019685Y-84769961D01*
X125072489Y-84724206D01*
X125124000Y-84713000D01*
X125305500Y-84713000D01*
X125372539Y-84732685D01*
X125418294Y-84785489D01*
X125429500Y-84836999D01*
X125429500Y-85197690D01*
X125429690Y-85200110D01*
X125429691Y-85200124D01*
X125432357Y-85233993D01*
X125432575Y-85234743D01*
X125437500Y-85269342D01*
X125437500Y-85727702D01*
X125432576Y-85762298D01*
X125414357Y-85825005D01*
X125411691Y-85858875D01*
X125411690Y-85858890D01*
X125411500Y-85861310D01*
X125411500Y-86330690D01*
X125411690Y-86333110D01*
X125411691Y-86333124D01*
X125414357Y-86366996D01*
X125459504Y-86522392D01*
X125459506Y-86522395D01*
X125464731Y-86531230D01*
X125482000Y-86594352D01*
X125482000Y-86882637D01*
X125469999Y-86923504D01*
X125470000Y-87369591D01*
X125469676Y-87377828D01*
X125469787Y-87375956D01*
X125469691Y-87378383D01*
X125469500Y-87380819D01*
X125469500Y-87383263D01*
X125469500Y-87383264D01*
X125469500Y-87876758D01*
X125469500Y-87876783D01*
X125469501Y-87879180D01*
X125469690Y-87881586D01*
X125469787Y-87884040D01*
X125469677Y-87882173D01*
X125470000Y-87890393D01*
X125470000Y-88055254D01*
X125497165Y-88105003D01*
X125499999Y-88131361D01*
X125499999Y-88401648D01*
X125482734Y-88464763D01*
X125477507Y-88473602D01*
X125432357Y-88629005D01*
X125429691Y-88662875D01*
X125429690Y-88662890D01*
X125429500Y-88665310D01*
X125429500Y-89134690D01*
X125429690Y-89137110D01*
X125429691Y-89137124D01*
X125432357Y-89170994D01*
X125477505Y-89326393D01*
X125482732Y-89335231D01*
X125499999Y-89398348D01*
X125500000Y-89446999D01*
X125499999Y-89798648D01*
X125482734Y-89861763D01*
X125477507Y-89870602D01*
X125432357Y-90026005D01*
X125429691Y-90059875D01*
X125429690Y-90059890D01*
X125429500Y-90062310D01*
X125429500Y-90531690D01*
X125429690Y-90534110D01*
X125429691Y-90534124D01*
X125432357Y-90567994D01*
X125477505Y-90723393D01*
X125482732Y-90732231D01*
X125499999Y-90795351D01*
X125499999Y-91101504D01*
X125500000Y-91101504D01*
X125646193Y-91059032D01*
X125666383Y-91047091D01*
X125734106Y-91029906D01*
X125792629Y-91047089D01*
X125813605Y-91059494D01*
X125969003Y-91104642D01*
X125969007Y-91104643D01*
X126005310Y-91107500D01*
X126007755Y-91107500D01*
X126412245Y-91107500D01*
X126414690Y-91107500D01*
X126450993Y-91104643D01*
X126606395Y-91059494D01*
X126745687Y-90977117D01*
X126860117Y-90862687D01*
X126942494Y-90723395D01*
X126987643Y-90567993D01*
X126990500Y-90531690D01*
X126990500Y-90244438D01*
X127010185Y-90177400D01*
X127062989Y-90131645D01*
X127130686Y-90121500D01*
X127221612Y-90133470D01*
X127229683Y-90134000D01*
X127487500Y-90134000D01*
X127487500Y-89760500D01*
X127507185Y-89693461D01*
X127559989Y-89647706D01*
X127611500Y-89636500D01*
X127613500Y-89636500D01*
X127680539Y-89656185D01*
X127726294Y-89708989D01*
X127737500Y-89760500D01*
X127737500Y-90133998D01*
X127768609Y-90165107D01*
X127802094Y-90226430D01*
X127797110Y-90296122D01*
X127768609Y-90340470D01*
X127476954Y-90632125D01*
X127460806Y-90645063D01*
X127412646Y-90696347D01*
X127409941Y-90699139D01*
X127390377Y-90718704D01*
X127388003Y-90721764D01*
X127387984Y-90721786D01*
X127387879Y-90721923D01*
X127380317Y-90730774D01*
X127350306Y-90762733D01*
X127340606Y-90780377D01*
X127329928Y-90796633D01*
X127317592Y-90812536D01*
X127300185Y-90852762D01*
X127295047Y-90863250D01*
X127273927Y-90901666D01*
X127268919Y-90921170D01*
X127262619Y-90939569D01*
X127254625Y-90958042D01*
X127247769Y-91001331D01*
X127245401Y-91012767D01*
X127234500Y-91055227D01*
X127234500Y-91075358D01*
X127232973Y-91094756D01*
X127229825Y-91114631D01*
X127233950Y-91158267D01*
X127234500Y-91169937D01*
X127234500Y-92523717D01*
X127214815Y-92590756D01*
X127162011Y-92636511D01*
X127092853Y-92646455D01*
X127055892Y-92635045D01*
X126943819Y-92580071D01*
X126943816Y-92580070D01*
X126756674Y-92531615D01*
X126737089Y-92530621D01*
X126563608Y-92521823D01*
X126372525Y-92551096D01*
X126191247Y-92618235D01*
X126051018Y-92705640D01*
X125983713Y-92724396D01*
X125916952Y-92703787D01*
X125909526Y-92698464D01*
X125867109Y-92665630D01*
X125693641Y-92580541D01*
X125612000Y-92559403D01*
X125612000Y-93555027D01*
X125605552Y-93542078D01*
X125522666Y-93466516D01*
X125418080Y-93426000D01*
X125334198Y-93426000D01*
X125251750Y-93441412D01*
X125156390Y-93500457D01*
X125088799Y-93589962D01*
X125058105Y-93697840D01*
X125068454Y-93809521D01*
X125118448Y-93909922D01*
X125201334Y-93985484D01*
X125305920Y-94026000D01*
X125389802Y-94026000D01*
X125472250Y-94010588D01*
X125567610Y-93951543D01*
X125612000Y-93892761D01*
X125612000Y-94896470D01*
X125782527Y-94833315D01*
X125922107Y-94746314D01*
X125989412Y-94727558D01*
X126056173Y-94748167D01*
X126063577Y-94753473D01*
X126106627Y-94786796D01*
X126280184Y-94871930D01*
X126467326Y-94920385D01*
X126660390Y-94930176D01*
X126660390Y-94930175D01*
X126660391Y-94930176D01*
X126851474Y-94900903D01*
X126873906Y-94892595D01*
X127032753Y-94833764D01*
X127172531Y-94746640D01*
X127239834Y-94727885D01*
X127306595Y-94748494D01*
X127314017Y-94753813D01*
X127356627Y-94786796D01*
X127530184Y-94871930D01*
X127717326Y-94920385D01*
X127910390Y-94930176D01*
X127910390Y-94930175D01*
X127910391Y-94930176D01*
X128101474Y-94900903D01*
X128123906Y-94892595D01*
X128282753Y-94833764D01*
X128422531Y-94746640D01*
X128489834Y-94727885D01*
X128556595Y-94748494D01*
X128564017Y-94753813D01*
X128606627Y-94786796D01*
X128780184Y-94871930D01*
X128967326Y-94920385D01*
X129160390Y-94930176D01*
X129160390Y-94930175D01*
X129160391Y-94930176D01*
X129351474Y-94900903D01*
X129373906Y-94892595D01*
X129532753Y-94833764D01*
X129672531Y-94746640D01*
X129739834Y-94727885D01*
X129806595Y-94748494D01*
X129814017Y-94753813D01*
X129856627Y-94786796D01*
X130030184Y-94871930D01*
X130217326Y-94920385D01*
X130410390Y-94930176D01*
X130410390Y-94930175D01*
X130410391Y-94930176D01*
X130601474Y-94900903D01*
X130623906Y-94892595D01*
X130782753Y-94833764D01*
X130922531Y-94746640D01*
X130989834Y-94727885D01*
X131056595Y-94748494D01*
X131064017Y-94753813D01*
X131106627Y-94786796D01*
X131280184Y-94871930D01*
X131467326Y-94920385D01*
X131660390Y-94930176D01*
X131660390Y-94930175D01*
X131660391Y-94930176D01*
X131851474Y-94900903D01*
X131873906Y-94892595D01*
X132032753Y-94833764D01*
X132172531Y-94746640D01*
X132239834Y-94727885D01*
X132306595Y-94748494D01*
X132314017Y-94753813D01*
X132356627Y-94786796D01*
X132530184Y-94871930D01*
X132717326Y-94920385D01*
X132910390Y-94930176D01*
X132910390Y-94930175D01*
X132910391Y-94930176D01*
X133101474Y-94900903D01*
X133282751Y-94833765D01*
X133283473Y-94833315D01*
X133340927Y-94797503D01*
X133408230Y-94778747D01*
X133471615Y-94797197D01*
X133578300Y-94863002D01*
X133739292Y-94916349D01*
X133835522Y-94926180D01*
X133835523Y-94926180D01*
X133838655Y-94926500D01*
X134385344Y-94926499D01*
X134484708Y-94916349D01*
X134645697Y-94863003D01*
X134693101Y-94833764D01*
X134790044Y-94773968D01*
X134909968Y-94654044D01*
X134999002Y-94509699D01*
X135051004Y-94352768D01*
X135052349Y-94348708D01*
X135062500Y-94249345D01*
X135062499Y-93202656D01*
X135052349Y-93103292D01*
X134999003Y-92942303D01*
X134999002Y-92942302D01*
X134999002Y-92942300D01*
X134909968Y-92797955D01*
X134790044Y-92678031D01*
X134645698Y-92588997D01*
X134484706Y-92535650D01*
X134483323Y-92535509D01*
X134479192Y-92533823D01*
X134471819Y-92531380D01*
X134471984Y-92530881D01*
X134418633Y-92509109D01*
X134408252Y-92499833D01*
X133632819Y-91724400D01*
X133599334Y-91663077D01*
X133596500Y-91636719D01*
X133596500Y-91615553D01*
X133616185Y-91548514D01*
X133668989Y-91502759D01*
X133682637Y-91500796D01*
X133707000Y-91482504D01*
X133707000Y-91482503D01*
X134206998Y-91482503D01*
X134353196Y-91440031D01*
X134492379Y-91357718D01*
X134606718Y-91243379D01*
X134689032Y-91104194D01*
X134734144Y-90948917D01*
X134735790Y-90928000D01*
X134206999Y-90928000D01*
X134206998Y-91482503D01*
X133707000Y-91482503D01*
X133707000Y-91176352D01*
X133724268Y-91113230D01*
X133729494Y-91104395D01*
X133729553Y-91104194D01*
X133774642Y-90948996D01*
X133774641Y-90948996D01*
X133774643Y-90948993D01*
X133777500Y-90912690D01*
X133777500Y-90551999D01*
X133797185Y-90484961D01*
X133849989Y-90439206D01*
X133901500Y-90428000D01*
X134735790Y-90428000D01*
X134734145Y-90407084D01*
X134693555Y-90267374D01*
X134693754Y-90197505D01*
X134731696Y-90138835D01*
X134769298Y-90116597D01*
X134791867Y-90108179D01*
X134861558Y-90103197D01*
X134922876Y-90136680D01*
X134963596Y-90177400D01*
X135001314Y-90215118D01*
X135140605Y-90297494D01*
X135296003Y-90342642D01*
X135296007Y-90342643D01*
X135332310Y-90345500D01*
X135334755Y-90345500D01*
X135739245Y-90345500D01*
X135741690Y-90345500D01*
X135777993Y-90342643D01*
X135933395Y-90297494D01*
X135954369Y-90285089D01*
X136022088Y-90267906D01*
X136080612Y-90285090D01*
X136100802Y-90297030D01*
X136247000Y-90339504D01*
X136247000Y-90033352D01*
X136264268Y-89970230D01*
X136269494Y-89961395D01*
X136269553Y-89961194D01*
X136298440Y-89861763D01*
X136314643Y-89805993D01*
X136316295Y-89785000D01*
X136747000Y-89785000D01*
X136747000Y-90339503D01*
X136893196Y-90297031D01*
X137032379Y-90214718D01*
X137146718Y-90100379D01*
X137229032Y-89961194D01*
X137274144Y-89805917D01*
X137275790Y-89785000D01*
X136747000Y-89785000D01*
X136316295Y-89785000D01*
X136317500Y-89769690D01*
X136317500Y-89300310D01*
X136316295Y-89285000D01*
X136747000Y-89285000D01*
X137275790Y-89285000D01*
X137274145Y-89264084D01*
X137229032Y-89108805D01*
X137146718Y-88969620D01*
X137032379Y-88855281D01*
X136893194Y-88772967D01*
X136747001Y-88730493D01*
X136747000Y-88730494D01*
X136747000Y-89285000D01*
X136316295Y-89285000D01*
X136314643Y-89264007D01*
X136277780Y-89137124D01*
X136265124Y-89093562D01*
X136266110Y-89093275D01*
X136253197Y-89042380D01*
X136275357Y-88976117D01*
X136289429Y-88959302D01*
X136327135Y-88921598D01*
X136408869Y-88783393D01*
X136453665Y-88629204D01*
X136456500Y-88593181D01*
X136456499Y-88194820D01*
X136453665Y-88158796D01*
X136408869Y-88004607D01*
X136408869Y-88004606D01*
X136374872Y-87947122D01*
X136357688Y-87879399D01*
X136374872Y-87820878D01*
X136408869Y-87763393D01*
X136408870Y-87763391D01*
X136453665Y-87609204D01*
X136456500Y-87573181D01*
X136456499Y-87174820D01*
X136453665Y-87138796D01*
X136408869Y-86984607D01*
X136327135Y-86846402D01*
X136289431Y-86808698D01*
X136255946Y-86747375D01*
X136260930Y-86677683D01*
X136269230Y-86660303D01*
X136286738Y-86600043D01*
X136314643Y-86503993D01*
X136316295Y-86483000D01*
X136747000Y-86483000D01*
X136747000Y-87037503D01*
X136893196Y-86995031D01*
X137032379Y-86912718D01*
X137146718Y-86798379D01*
X137229032Y-86659194D01*
X137274144Y-86503917D01*
X137275790Y-86483000D01*
X136747000Y-86483000D01*
X136316295Y-86483000D01*
X136317500Y-86467690D01*
X136317500Y-85998310D01*
X136316295Y-85983000D01*
X136747000Y-85983000D01*
X137275790Y-85983000D01*
X137274145Y-85962084D01*
X137229032Y-85806805D01*
X137146718Y-85667620D01*
X137032379Y-85553281D01*
X136893194Y-85470967D01*
X136747001Y-85428493D01*
X136747000Y-85428494D01*
X136747000Y-85983000D01*
X136316295Y-85983000D01*
X136314643Y-85962007D01*
X136269494Y-85806605D01*
X136264267Y-85797766D01*
X136247000Y-85734647D01*
X136247000Y-85428494D01*
X136246998Y-85428493D01*
X136100806Y-85470967D01*
X136080610Y-85482911D01*
X136012886Y-85500092D01*
X135954370Y-85482910D01*
X135933395Y-85470506D01*
X135933393Y-85470505D01*
X135933391Y-85470504D01*
X135777996Y-85425357D01*
X135744124Y-85422691D01*
X135744110Y-85422690D01*
X135741690Y-85422500D01*
X135332310Y-85422500D01*
X135329890Y-85422690D01*
X135329875Y-85422691D01*
X135296003Y-85425357D01*
X135140605Y-85470505D01*
X135001311Y-85552883D01*
X134922878Y-85631317D01*
X134861555Y-85664802D01*
X134791864Y-85659818D01*
X134738485Y-85639909D01*
X134682166Y-85633854D01*
X134682165Y-85633853D01*
X134678873Y-85633500D01*
X134675550Y-85633500D01*
X132786439Y-85633500D01*
X132786420Y-85633500D01*
X132783128Y-85633501D01*
X132779848Y-85633853D01*
X132779840Y-85633854D01*
X132723515Y-85639909D01*
X132588669Y-85690204D01*
X132473454Y-85776454D01*
X132387202Y-85891671D01*
X132373365Y-85928771D01*
X132331494Y-85984705D01*
X132278468Y-86004481D01*
X132278598Y-86004929D01*
X132272585Y-86006675D01*
X132266029Y-86009121D01*
X132263766Y-86009237D01*
X132244217Y-86014917D01*
X132225167Y-86018862D01*
X132205207Y-86021383D01*
X132164451Y-86037519D01*
X132153405Y-86041301D01*
X132111306Y-86053532D01*
X132093980Y-86063779D01*
X132076512Y-86072336D01*
X132057795Y-86079746D01*
X132022325Y-86105516D01*
X132012567Y-86111927D01*
X131974844Y-86134237D01*
X131974842Y-86134238D01*
X131974843Y-86134238D01*
X131960607Y-86148473D01*
X131945819Y-86161103D01*
X131929533Y-86172936D01*
X131901591Y-86206711D01*
X131893730Y-86215349D01*
X131389181Y-86719898D01*
X131327858Y-86753383D01*
X131258166Y-86748399D01*
X131202233Y-86706527D01*
X131177816Y-86641063D01*
X131177500Y-86632217D01*
X131177500Y-86529175D01*
X131197185Y-86462136D01*
X131249989Y-86416381D01*
X131251066Y-86415895D01*
X131292052Y-86397647D01*
X131445191Y-86286385D01*
X131571854Y-86145712D01*
X131666500Y-85981780D01*
X131695779Y-85891669D01*
X131724995Y-85801752D01*
X131744781Y-85613496D01*
X131724995Y-85425240D01*
X131689293Y-85315362D01*
X131666500Y-85245211D01*
X131571854Y-85081279D01*
X131445191Y-84940606D01*
X131292051Y-84829344D01*
X131119123Y-84752351D01*
X130922719Y-84710604D01*
X130861237Y-84677412D01*
X130827461Y-84616248D01*
X130824500Y-84589314D01*
X130824500Y-84465500D01*
X130824500Y-84305955D01*
X130826770Y-84285399D01*
X130824561Y-84215095D01*
X130824500Y-84211200D01*
X130824500Y-84187414D01*
X130824500Y-84183524D01*
X130824012Y-84179660D01*
X130823994Y-84179516D01*
X130823076Y-84167860D01*
X130821835Y-84128368D01*
X130821700Y-84124057D01*
X130816082Y-84104723D01*
X130812139Y-84085682D01*
X130809616Y-84065707D01*
X130793480Y-84024953D01*
X130789697Y-84013904D01*
X130777468Y-83971809D01*
X130767222Y-83954485D01*
X130758661Y-83937009D01*
X130751253Y-83918297D01*
X130725489Y-83882837D01*
X130719074Y-83873070D01*
X130696763Y-83835344D01*
X130682530Y-83821111D01*
X130669893Y-83806316D01*
X130658063Y-83790033D01*
X130658060Y-83790031D01*
X130658060Y-83790030D01*
X130624287Y-83762090D01*
X130615647Y-83754228D01*
X130615260Y-83753841D01*
X130581775Y-83692518D01*
X130586759Y-83622826D01*
X130628631Y-83566893D01*
X130677160Y-83544869D01*
X130708803Y-83538144D01*
X130881730Y-83461151D01*
X130927617Y-83427811D01*
X130993420Y-83404333D01*
X131061474Y-83420158D01*
X131073372Y-83427804D01*
X131119270Y-83461151D01*
X131119271Y-83461151D01*
X131119272Y-83461152D01*
X131292197Y-83538144D01*
X131477352Y-83577500D01*
X131477354Y-83577500D01*
X131666643Y-83577500D01*
X131666646Y-83577500D01*
X131672892Y-83576172D01*
X131742557Y-83581487D01*
X131798292Y-83623622D01*
X131821994Y-83684498D01*
X131827973Y-83741389D01*
X131829326Y-83754257D01*
X131887820Y-83934284D01*
X131982466Y-84098216D01*
X132109129Y-84238889D01*
X132262269Y-84350151D01*
X132435197Y-84427144D01*
X132620352Y-84466500D01*
X132620354Y-84466500D01*
X132809648Y-84466500D01*
X132942468Y-84438268D01*
X132994803Y-84427144D01*
X133106755Y-84377298D01*
X133172564Y-84347999D01*
X133241814Y-84338714D01*
X133273436Y-84347999D01*
X133451197Y-84427144D01*
X133636352Y-84466500D01*
X133636354Y-84466500D01*
X133825648Y-84466500D01*
X133958468Y-84438268D01*
X134010803Y-84427144D01*
X134183730Y-84350151D01*
X134229617Y-84316811D01*
X134295420Y-84293333D01*
X134363474Y-84309158D01*
X134375372Y-84316804D01*
X134421270Y-84350151D01*
X134421271Y-84350151D01*
X134421272Y-84350152D01*
X134594197Y-84427144D01*
X134779352Y-84466500D01*
X134779354Y-84466500D01*
X134968648Y-84466500D01*
X135153800Y-84427145D01*
X135153801Y-84427144D01*
X135153803Y-84427144D01*
X135326730Y-84350151D01*
X135326735Y-84350146D01*
X135331562Y-84347998D01*
X135400812Y-84338712D01*
X135432435Y-84347998D01*
X135437268Y-84350150D01*
X135437270Y-84350151D01*
X135461900Y-84361117D01*
X135610197Y-84427144D01*
X135795352Y-84466500D01*
X135795354Y-84466500D01*
X135984648Y-84466500D01*
X136117468Y-84438268D01*
X136169803Y-84427144D01*
X136281755Y-84377298D01*
X136347564Y-84347999D01*
X136416814Y-84338714D01*
X136448436Y-84347999D01*
X136626197Y-84427144D01*
X136811352Y-84466500D01*
X136811354Y-84466500D01*
X137000648Y-84466500D01*
X137133468Y-84438268D01*
X137185803Y-84427144D01*
X137358730Y-84350151D01*
X137404617Y-84316811D01*
X137470420Y-84293333D01*
X137538474Y-84309158D01*
X137550372Y-84316804D01*
X137596270Y-84350151D01*
X137596271Y-84350151D01*
X137596272Y-84350152D01*
X137769197Y-84427144D01*
X137954352Y-84466500D01*
X137954354Y-84466500D01*
X138143648Y-84466500D01*
X138276468Y-84438268D01*
X138328803Y-84427144D01*
X138501730Y-84350151D01*
X138517472Y-84338714D01*
X138654870Y-84238889D01*
X138701219Y-84187414D01*
X138781533Y-84098216D01*
X138820733Y-84030320D01*
X138833113Y-84008877D01*
X138883680Y-83960662D01*
X138952287Y-83947438D01*
X139017151Y-83973406D01*
X139057680Y-84030320D01*
X139064500Y-84070877D01*
X139064500Y-96395500D01*
X139044815Y-96462539D01*
X138992011Y-96508294D01*
X138940500Y-96519500D01*
X122553230Y-96519500D01*
X122486191Y-96499815D01*
X122440436Y-96447011D01*
X122429232Y-96394775D01*
X122429745Y-96307086D01*
X122441064Y-94926178D01*
X122448853Y-93976000D01*
X124412000Y-93976000D01*
X124412000Y-94021033D01*
X124412317Y-94027298D01*
X124426648Y-94168222D01*
X124484488Y-94352569D01*
X124578253Y-94521503D01*
X124704105Y-94668104D01*
X124856892Y-94786370D01*
X125030358Y-94871458D01*
X125111999Y-94892595D01*
X125112000Y-93976000D01*
X124412000Y-93976000D01*
X122448853Y-93976000D01*
X122452951Y-93475999D01*
X124411999Y-93475999D01*
X124412000Y-93476000D01*
X125112000Y-93476000D01*
X125112000Y-92555528D01*
X125111999Y-92555528D01*
X124941469Y-92618685D01*
X124777498Y-92720890D01*
X124637464Y-92854003D01*
X124527087Y-93012585D01*
X124450893Y-93190137D01*
X124412000Y-93379395D01*
X124411999Y-93475999D01*
X122452951Y-93475999D01*
X122476960Y-90547000D01*
X124471210Y-90547000D01*
X124472854Y-90567915D01*
X124517967Y-90723194D01*
X124600281Y-90862379D01*
X124714620Y-90976718D01*
X124853803Y-91059031D01*
X125000000Y-91101504D01*
X125000000Y-90547000D01*
X124471210Y-90547000D01*
X122476960Y-90547000D01*
X122481058Y-90046999D01*
X124471209Y-90046999D01*
X124471210Y-90047000D01*
X125000000Y-90047000D01*
X125000000Y-89150000D01*
X124471210Y-89150000D01*
X124472854Y-89170915D01*
X124517967Y-89326194D01*
X124600281Y-89465379D01*
X124645721Y-89510819D01*
X124679206Y-89572142D01*
X124674222Y-89641834D01*
X124645721Y-89686181D01*
X124600281Y-89731620D01*
X124517967Y-89870805D01*
X124472855Y-90026082D01*
X124471209Y-90046999D01*
X122481058Y-90046999D01*
X122498820Y-87880000D01*
X124450069Y-87880000D01*
X124452833Y-87915127D01*
X124497593Y-88069192D01*
X124587238Y-88220773D01*
X124584206Y-88222565D01*
X124605262Y-88261126D01*
X124600278Y-88330818D01*
X124590828Y-88350605D01*
X124517967Y-88473805D01*
X124472855Y-88629082D01*
X124471209Y-88649999D01*
X124471210Y-88650000D01*
X125000000Y-88650000D01*
X125000000Y-88484746D01*
X124972834Y-88434996D01*
X124970000Y-88408638D01*
X124970000Y-87880000D01*
X124450069Y-87880000D01*
X122498820Y-87880000D01*
X122502918Y-87380000D01*
X124450069Y-87380000D01*
X124969999Y-87380000D01*
X124970000Y-86833362D01*
X124982000Y-86792494D01*
X124982000Y-86346000D01*
X124453210Y-86346000D01*
X124454854Y-86366915D01*
X124499967Y-86522194D01*
X124582281Y-86661379D01*
X124688757Y-86767855D01*
X124722242Y-86829178D01*
X124717258Y-86898870D01*
X124688757Y-86943217D01*
X124579264Y-87052709D01*
X124497593Y-87190807D01*
X124452833Y-87344872D01*
X124450069Y-87380000D01*
X122502918Y-87380000D01*
X122523073Y-84921000D01*
X123284496Y-84921000D01*
X123326968Y-85067196D01*
X123409281Y-85206379D01*
X123523620Y-85320718D01*
X123662805Y-85403032D01*
X123818084Y-85448145D01*
X123839000Y-85449790D01*
X123839000Y-84921000D01*
X123284496Y-84921000D01*
X122523073Y-84921000D01*
X122535296Y-83429819D01*
X122555529Y-83362949D01*
X122608706Y-83317628D01*
X122677943Y-83308252D01*
X122693885Y-83311764D01*
X122841000Y-83354504D01*
X122841000Y-82665260D01*
X122860685Y-82598221D01*
X122913489Y-82552466D01*
X122982647Y-82542522D01*
X122990776Y-82543969D01*
G37*
%TD.AperFunction*%
%TD*%
M02*
