%TF.GenerationSoftware,KiCad,Pcbnew,7.0.2*%
%TF.CreationDate,2024-08-09T14:52:10-04:00*%
%TF.ProjectId,NewPCB,4e657750-4342-42e6-9b69-6361645f7063,rev?*%
%TF.SameCoordinates,Original*%
%TF.FileFunction,Copper,L2,Bot*%
%TF.FilePolarity,Positive*%
%FSLAX46Y46*%
G04 Gerber Fmt 4.6, Leading zero omitted, Abs format (unit mm)*
G04 Created by KiCad (PCBNEW 7.0.2) date 2024-08-09 14:52:10*
%MOMM*%
%LPD*%
G01*
G04 APERTURE LIST*
G04 Aperture macros list*
%AMRoundRect*
0 Rectangle with rounded corners*
0 $1 Rounding radius*
0 $2 $3 $4 $5 $6 $7 $8 $9 X,Y pos of 4 corners*
0 Add a 4 corners polygon primitive as box body*
4,1,4,$2,$3,$4,$5,$6,$7,$8,$9,$2,$3,0*
0 Add four circle primitives for the rounded corners*
1,1,$1+$1,$2,$3*
1,1,$1+$1,$4,$5*
1,1,$1+$1,$6,$7*
1,1,$1+$1,$8,$9*
0 Add four rect primitives between the rounded corners*
20,1,$1+$1,$2,$3,$4,$5,0*
20,1,$1+$1,$4,$5,$6,$7,0*
20,1,$1+$1,$6,$7,$8,$9,0*
20,1,$1+$1,$8,$9,$2,$3,0*%
G04 Aperture macros list end*
%TA.AperFunction,ComponentPad*%
%ADD10O,0.900000X1.400000*%
%TD*%
%TA.AperFunction,ComponentPad*%
%ADD11RoundRect,0.225000X0.225000X0.475000X-0.225000X0.475000X-0.225000X-0.475000X0.225000X-0.475000X0*%
%TD*%
%TA.AperFunction,ComponentPad*%
%ADD12R,0.900000X0.500000*%
%TD*%
%TA.AperFunction,ViaPad*%
%ADD13C,0.800000*%
%TD*%
%TA.AperFunction,Conductor*%
%ADD14C,0.254000*%
%TD*%
G04 APERTURE END LIST*
D10*
%TO.P,J1,8,Pin_8*%
%TO.N,GND*%
X125362000Y-93726000D03*
%TO.P,J1,7,Pin_7*%
%TO.N,Net-(J1-Pin_7)*%
X126612000Y-93726000D03*
%TO.P,J1,6,Pin_6*%
%TO.N,Net-(J1-Pin_6)*%
X127862000Y-93726000D03*
%TO.P,J1,5,Pin_5*%
%TO.N,Net-(J1-Pin_5)*%
X129112000Y-93726000D03*
%TO.P,J1,4,Pin_4*%
%TO.N,Net-(J1-Pin_4)*%
X130362000Y-93726000D03*
%TO.P,J1,3,Pin_3*%
%TO.N,Net-(J1-Pin_3)*%
X131612000Y-93726000D03*
%TO.P,J1,2,Pin_2*%
%TO.N,Net-(J1-Pin_2)*%
X132862000Y-93726000D03*
D11*
%TO.P,J1,1,Pin_1*%
%TO.N,VDD*%
X134112000Y-93726000D03*
%TD*%
D12*
%TO.P,AE1,2*%
%TO.N,N/C*%
X124160000Y-80603000D03*
%TD*%
D13*
%TO.N,*%
X128270000Y-81661000D03*
%TO.N,GND*%
X128976353Y-89038859D03*
X130054300Y-89078058D03*
X130054300Y-87902115D03*
X128937155Y-87921714D03*
%TO.N,*%
X123116238Y-81650019D03*
X125476000Y-81534000D03*
X131572000Y-82677000D03*
X130429000Y-82677000D03*
X129413000Y-82677000D03*
X134874000Y-83566000D03*
X133731000Y-83566000D03*
X132715000Y-83566000D03*
X134857829Y-82654018D03*
X133714829Y-82654018D03*
X132698829Y-82654018D03*
X131572000Y-81661000D03*
X130429000Y-81661000D03*
X129413000Y-81661000D03*
X134874000Y-81661000D03*
X133731000Y-81661000D03*
X132715000Y-81661000D03*
X138049000Y-83566000D03*
X136906000Y-83566000D03*
X135890000Y-83566000D03*
X138065170Y-82636736D03*
X136922170Y-82636736D03*
X135906170Y-82636736D03*
X135890000Y-81661000D03*
X136906000Y-81661000D03*
X138049000Y-81661000D03*
%TO.N,VDD*%
X126619000Y-88509000D03*
X128020866Y-86619839D03*
%TO.N,Net-(J1-Pin_7)*%
X131445000Y-90551000D03*
%TO.N,Net-(J1-Pin_3)*%
X131612000Y-93726000D03*
X131191000Y-91694000D03*
%TO.N,Net-(U1-VDD_PA)*%
X127381000Y-85852000D03*
X130839321Y-85613496D03*
%TD*%
D14*
%TO.N,VDD*%
X134112000Y-93091000D02*
X134112000Y-93726000D01*
X132969000Y-91948000D02*
X134112000Y-93091000D01*
X132969000Y-90551000D02*
X132969000Y-91948000D01*
X132242000Y-89824000D02*
X132969000Y-90551000D01*
X129886000Y-89824000D02*
X132242000Y-89824000D01*
X129613000Y-90097000D02*
X129886000Y-89824000D01*
X128207000Y-90097000D02*
X129613000Y-90097000D01*
X126619000Y-88509000D02*
X128207000Y-90097000D01*
X128020866Y-86619839D02*
X128020866Y-87117134D01*
X128020866Y-87117134D02*
X126629000Y-88509000D01*
X126629000Y-88509000D02*
X126619000Y-88509000D01*
%TO.N,Net-(J1-Pin_7)*%
X126612000Y-92717000D02*
X126612000Y-93726000D01*
X131445000Y-90551000D02*
X128778000Y-90551000D01*
X128778000Y-90551000D02*
X126612000Y-92717000D01*
%TO.N,Net-(J1-Pin_3)*%
X131191000Y-93305000D02*
X131612000Y-93726000D01*
X131191000Y-91694000D02*
X131191000Y-93305000D01*
%TO.N,Net-(U1-VDD_PA)*%
X127619504Y-85613496D02*
X127381000Y-85852000D01*
X130839321Y-85613496D02*
X127619504Y-85613496D01*
%TD*%
%TA.AperFunction,Conductor*%
%TO.N,GND*%
G36*
X127449074Y-81045685D02*
G01*
X127494829Y-81098489D01*
X127504773Y-81167647D01*
X127489422Y-81212000D01*
X127442820Y-81292715D01*
X127384326Y-81472742D01*
X127364540Y-81660999D01*
X127384326Y-81849257D01*
X127442820Y-82029284D01*
X127537466Y-82193216D01*
X127664129Y-82333889D01*
X127817269Y-82445151D01*
X127990197Y-82522144D01*
X128175352Y-82561500D01*
X128377679Y-82561500D01*
X128377679Y-82564462D01*
X128427487Y-82568257D01*
X128483227Y-82610386D01*
X128506938Y-82671275D01*
X128527326Y-82865257D01*
X128585820Y-83045284D01*
X128680466Y-83209216D01*
X128807129Y-83349889D01*
X128960269Y-83461151D01*
X129133197Y-83538144D01*
X129318352Y-83577500D01*
X129318354Y-83577500D01*
X129507648Y-83577500D01*
X129652573Y-83546695D01*
X129692803Y-83538144D01*
X129865730Y-83461151D01*
X129865730Y-83461150D01*
X129870563Y-83458999D01*
X129939813Y-83449714D01*
X129971435Y-83458999D01*
X130149197Y-83538144D01*
X130334352Y-83577500D01*
X130334354Y-83577500D01*
X130523648Y-83577500D01*
X130668573Y-83546695D01*
X130708803Y-83538144D01*
X130881730Y-83461151D01*
X130927617Y-83427811D01*
X130993420Y-83404333D01*
X131061474Y-83420158D01*
X131073372Y-83427804D01*
X131119270Y-83461151D01*
X131119271Y-83461151D01*
X131119272Y-83461152D01*
X131292197Y-83538144D01*
X131477352Y-83577500D01*
X131477354Y-83577500D01*
X131666643Y-83577500D01*
X131666646Y-83577500D01*
X131672892Y-83576172D01*
X131742557Y-83581487D01*
X131798292Y-83623622D01*
X131821995Y-83684500D01*
X131829326Y-83754257D01*
X131887820Y-83934284D01*
X131982466Y-84098216D01*
X132109129Y-84238889D01*
X132262269Y-84350151D01*
X132435197Y-84427144D01*
X132620352Y-84466500D01*
X132620354Y-84466500D01*
X132809648Y-84466500D01*
X132933083Y-84440262D01*
X132994803Y-84427144D01*
X133167728Y-84350152D01*
X133172564Y-84347999D01*
X133241814Y-84338714D01*
X133273436Y-84347999D01*
X133451197Y-84427144D01*
X133636352Y-84466500D01*
X133636354Y-84466500D01*
X133825648Y-84466500D01*
X133949083Y-84440262D01*
X134010803Y-84427144D01*
X134183730Y-84350151D01*
X134229617Y-84316811D01*
X134295420Y-84293333D01*
X134363474Y-84309158D01*
X134375372Y-84316804D01*
X134421270Y-84350151D01*
X134421271Y-84350151D01*
X134421272Y-84350152D01*
X134594197Y-84427144D01*
X134779352Y-84466500D01*
X134779354Y-84466500D01*
X134968648Y-84466500D01*
X135153800Y-84427145D01*
X135153801Y-84427144D01*
X135153803Y-84427144D01*
X135326730Y-84350151D01*
X135326735Y-84350146D01*
X135331562Y-84347998D01*
X135400812Y-84338712D01*
X135432435Y-84347998D01*
X135437268Y-84350150D01*
X135437270Y-84350151D01*
X135610196Y-84427144D01*
X135610197Y-84427144D01*
X135795352Y-84466500D01*
X135795354Y-84466500D01*
X135984648Y-84466500D01*
X136108084Y-84440262D01*
X136169803Y-84427144D01*
X136342728Y-84350152D01*
X136347564Y-84347999D01*
X136416814Y-84338714D01*
X136448436Y-84347999D01*
X136626197Y-84427144D01*
X136811352Y-84466500D01*
X136811354Y-84466500D01*
X137000648Y-84466500D01*
X137124084Y-84440262D01*
X137185803Y-84427144D01*
X137358730Y-84350151D01*
X137404617Y-84316811D01*
X137470420Y-84293333D01*
X137538474Y-84309158D01*
X137550372Y-84316804D01*
X137596270Y-84350151D01*
X137596271Y-84350151D01*
X137596272Y-84350152D01*
X137769197Y-84427144D01*
X137954352Y-84466500D01*
X137954354Y-84466500D01*
X138143648Y-84466500D01*
X138267084Y-84440262D01*
X138328803Y-84427144D01*
X138501730Y-84350151D01*
X138517472Y-84338714D01*
X138654870Y-84238889D01*
X138781533Y-84098216D01*
X138833113Y-84008877D01*
X138883680Y-83960662D01*
X138952287Y-83947438D01*
X139017151Y-83973406D01*
X139057680Y-84030320D01*
X139064500Y-84070877D01*
X139064500Y-96395500D01*
X139044815Y-96462539D01*
X138992011Y-96508294D01*
X138940500Y-96519500D01*
X122553230Y-96519500D01*
X122486191Y-96499815D01*
X122440436Y-96447011D01*
X122429232Y-96394775D01*
X122429745Y-96307090D01*
X122441064Y-94926178D01*
X122448853Y-93976000D01*
X124412000Y-93976000D01*
X124412000Y-94021033D01*
X124412317Y-94027298D01*
X124426648Y-94168222D01*
X124484488Y-94352569D01*
X124578253Y-94521503D01*
X124704105Y-94668104D01*
X124856892Y-94786370D01*
X125030358Y-94871458D01*
X125111999Y-94892595D01*
X125112000Y-93976000D01*
X124412000Y-93976000D01*
X122448853Y-93976000D01*
X122451133Y-93697840D01*
X125058105Y-93697840D01*
X125068454Y-93809521D01*
X125118448Y-93909922D01*
X125201334Y-93985484D01*
X125305920Y-94026000D01*
X125389802Y-94026000D01*
X125472250Y-94010588D01*
X125567610Y-93951543D01*
X125612000Y-93892761D01*
X125612000Y-94896470D01*
X125782527Y-94833315D01*
X125922107Y-94746314D01*
X125989412Y-94727558D01*
X126056173Y-94748167D01*
X126063577Y-94753473D01*
X126106627Y-94786796D01*
X126280184Y-94871930D01*
X126467326Y-94920385D01*
X126660390Y-94930176D01*
X126660390Y-94930175D01*
X126660391Y-94930176D01*
X126851474Y-94900903D01*
X126873906Y-94892595D01*
X127032753Y-94833764D01*
X127172531Y-94746640D01*
X127239834Y-94727885D01*
X127306595Y-94748494D01*
X127314017Y-94753813D01*
X127356627Y-94786796D01*
X127530184Y-94871930D01*
X127717326Y-94920385D01*
X127910390Y-94930176D01*
X127910390Y-94930175D01*
X127910391Y-94930176D01*
X128101474Y-94900903D01*
X128123906Y-94892595D01*
X128282753Y-94833764D01*
X128422531Y-94746640D01*
X128489834Y-94727885D01*
X128556595Y-94748494D01*
X128564017Y-94753813D01*
X128606627Y-94786796D01*
X128780184Y-94871930D01*
X128967326Y-94920385D01*
X129160390Y-94930176D01*
X129160390Y-94930175D01*
X129160391Y-94930176D01*
X129351474Y-94900903D01*
X129373906Y-94892595D01*
X129532753Y-94833764D01*
X129672531Y-94746640D01*
X129739834Y-94727885D01*
X129806595Y-94748494D01*
X129814017Y-94753813D01*
X129856627Y-94786796D01*
X130030184Y-94871930D01*
X130217326Y-94920385D01*
X130410390Y-94930176D01*
X130410390Y-94930175D01*
X130410391Y-94930176D01*
X130601474Y-94900903D01*
X130623906Y-94892595D01*
X130782753Y-94833764D01*
X130922531Y-94746640D01*
X130989834Y-94727885D01*
X131056595Y-94748494D01*
X131064017Y-94753813D01*
X131106627Y-94786796D01*
X131280184Y-94871930D01*
X131467326Y-94920385D01*
X131660390Y-94930176D01*
X131660390Y-94930175D01*
X131660391Y-94930176D01*
X131851474Y-94900903D01*
X131873906Y-94892595D01*
X132032753Y-94833764D01*
X132172531Y-94746640D01*
X132239834Y-94727885D01*
X132306595Y-94748494D01*
X132314017Y-94753813D01*
X132356627Y-94786796D01*
X132530184Y-94871930D01*
X132717326Y-94920385D01*
X132910390Y-94930176D01*
X132910390Y-94930175D01*
X132910391Y-94930176D01*
X133101474Y-94900903D01*
X133282751Y-94833765D01*
X133283473Y-94833315D01*
X133340927Y-94797503D01*
X133408230Y-94778747D01*
X133471615Y-94797197D01*
X133578300Y-94863002D01*
X133739292Y-94916349D01*
X133835522Y-94926180D01*
X133835523Y-94926180D01*
X133838655Y-94926500D01*
X134385344Y-94926499D01*
X134484708Y-94916349D01*
X134645697Y-94863003D01*
X134693101Y-94833764D01*
X134790044Y-94773968D01*
X134909968Y-94654044D01*
X134999002Y-94509699D01*
X135051004Y-94352768D01*
X135052349Y-94348708D01*
X135062500Y-94249345D01*
X135062499Y-93202656D01*
X135052349Y-93103292D01*
X134999003Y-92942303D01*
X134999002Y-92942302D01*
X134999002Y-92942300D01*
X134909968Y-92797955D01*
X134790044Y-92678031D01*
X134645698Y-92588997D01*
X134484706Y-92535650D01*
X134483323Y-92535509D01*
X134479192Y-92533823D01*
X134471819Y-92531380D01*
X134471984Y-92530881D01*
X134418633Y-92509109D01*
X134408252Y-92499833D01*
X133632819Y-91724400D01*
X133599334Y-91663077D01*
X133596500Y-91636719D01*
X133596500Y-90633965D01*
X133598770Y-90613403D01*
X133598679Y-90610525D01*
X133598680Y-90610523D01*
X133596559Y-90543093D01*
X133596499Y-90539195D01*
X133596500Y-90511524D01*
X133596010Y-90507645D01*
X133595994Y-90507516D01*
X133595076Y-90495860D01*
X133594642Y-90482043D01*
X133593700Y-90452057D01*
X133588082Y-90432723D01*
X133584139Y-90413682D01*
X133581616Y-90393707D01*
X133565480Y-90352953D01*
X133561697Y-90341904D01*
X133549468Y-90299809D01*
X133539222Y-90282485D01*
X133530661Y-90265009D01*
X133523253Y-90246297D01*
X133497489Y-90210837D01*
X133491074Y-90201070D01*
X133468763Y-90163344D01*
X133454530Y-90149111D01*
X133441893Y-90134316D01*
X133430063Y-90118033D01*
X133430060Y-90118031D01*
X133430060Y-90118030D01*
X133396287Y-90090090D01*
X133387647Y-90082228D01*
X132744375Y-89438956D01*
X132731439Y-89422809D01*
X132680152Y-89374647D01*
X132677355Y-89371936D01*
X132660558Y-89355139D01*
X132657796Y-89352377D01*
X132654714Y-89349987D01*
X132654710Y-89349983D01*
X132654604Y-89349901D01*
X132645716Y-89342310D01*
X132641630Y-89338473D01*
X132613767Y-89312307D01*
X132611465Y-89311041D01*
X132596120Y-89302605D01*
X132579858Y-89291922D01*
X132563963Y-89279592D01*
X132523736Y-89262184D01*
X132513248Y-89257046D01*
X132474831Y-89235926D01*
X132455337Y-89230921D01*
X132436933Y-89224620D01*
X132418458Y-89216625D01*
X132375171Y-89209769D01*
X132363736Y-89207401D01*
X132321274Y-89196500D01*
X132321272Y-89196500D01*
X132301142Y-89196500D01*
X132281743Y-89194973D01*
X132261868Y-89191825D01*
X132261867Y-89191825D01*
X132241261Y-89193772D01*
X132218230Y-89195950D01*
X132206561Y-89196500D01*
X129968966Y-89196500D01*
X129948403Y-89194229D01*
X129878095Y-89196439D01*
X129874200Y-89196500D01*
X129846524Y-89196500D01*
X129842652Y-89196988D01*
X129842635Y-89196990D01*
X129842493Y-89197008D01*
X129830874Y-89197922D01*
X129787057Y-89199299D01*
X129767724Y-89204916D01*
X129748678Y-89208860D01*
X129728705Y-89211383D01*
X129687953Y-89227518D01*
X129676905Y-89231301D01*
X129634807Y-89243532D01*
X129617480Y-89253779D01*
X129600012Y-89262336D01*
X129581295Y-89269746D01*
X129545825Y-89295516D01*
X129536067Y-89301927D01*
X129498344Y-89324237D01*
X129498342Y-89324238D01*
X129498343Y-89324238D01*
X129484107Y-89338473D01*
X129469319Y-89351103D01*
X129453030Y-89362938D01*
X129425094Y-89396706D01*
X129417236Y-89405343D01*
X129389400Y-89433180D01*
X129328077Y-89466666D01*
X129301717Y-89469500D01*
X128518281Y-89469500D01*
X128451242Y-89449815D01*
X128430600Y-89433181D01*
X127599099Y-88601680D01*
X127565614Y-88540357D01*
X127570598Y-88470665D01*
X127599097Y-88426320D01*
X128405910Y-87619507D01*
X128422056Y-87606573D01*
X128424025Y-87604475D01*
X128424028Y-87604474D01*
X128470250Y-87555251D01*
X128472867Y-87552550D01*
X128492489Y-87532930D01*
X128494952Y-87529753D01*
X128502550Y-87520854D01*
X128532559Y-87488901D01*
X128542258Y-87471256D01*
X128552937Y-87454998D01*
X128565274Y-87439096D01*
X128582681Y-87398868D01*
X128587817Y-87388385D01*
X128591055Y-87382494D01*
X128608938Y-87349968D01*
X128613943Y-87330474D01*
X128620247Y-87312060D01*
X128622290Y-87307339D01*
X128643938Y-87273623D01*
X128753399Y-87152055D01*
X128848045Y-86988123D01*
X128854661Y-86967760D01*
X128906540Y-86808095D01*
X128926326Y-86619839D01*
X128906540Y-86431583D01*
X128897353Y-86403311D01*
X128895358Y-86333474D01*
X128931438Y-86273641D01*
X128994139Y-86242812D01*
X129015285Y-86240996D01*
X130137374Y-86240996D01*
X130204413Y-86260681D01*
X130229524Y-86282024D01*
X130233450Y-86286385D01*
X130386590Y-86397647D01*
X130559518Y-86474640D01*
X130744673Y-86513996D01*
X130744675Y-86513996D01*
X130933969Y-86513996D01*
X131057405Y-86487758D01*
X131119124Y-86474640D01*
X131292051Y-86397647D01*
X131445192Y-86286384D01*
X131571854Y-86145712D01*
X131666500Y-85981780D01*
X131724995Y-85801752D01*
X131744781Y-85613496D01*
X131724995Y-85425240D01*
X131666500Y-85245212D01*
X131666500Y-85245211D01*
X131571854Y-85081279D01*
X131445191Y-84940606D01*
X131292051Y-84829344D01*
X131119123Y-84752351D01*
X130933969Y-84712996D01*
X130933967Y-84712996D01*
X130744675Y-84712996D01*
X130744673Y-84712996D01*
X130559518Y-84752351D01*
X130386590Y-84829344D01*
X130233450Y-84940606D01*
X130229524Y-84944968D01*
X130170038Y-84981617D01*
X130137374Y-84985996D01*
X127702471Y-84985996D01*
X127681900Y-84983725D01*
X127649287Y-84984749D01*
X127619616Y-84982100D01*
X127475649Y-84951500D01*
X127475646Y-84951500D01*
X127286354Y-84951500D01*
X127286352Y-84951500D01*
X127101197Y-84990855D01*
X126928269Y-85067848D01*
X126775129Y-85179110D01*
X126648466Y-85319783D01*
X126553820Y-85483715D01*
X126495326Y-85663742D01*
X126475540Y-85852000D01*
X126495326Y-86040257D01*
X126553820Y-86220284D01*
X126648466Y-86384216D01*
X126775129Y-86524889D01*
X126928265Y-86636149D01*
X126971267Y-86655294D01*
X127060991Y-86695242D01*
X127114227Y-86740493D01*
X127133874Y-86795556D01*
X127134991Y-86806190D01*
X127135192Y-86808096D01*
X127187070Y-86967760D01*
X127189065Y-87037602D01*
X127156820Y-87093759D01*
X126678400Y-87572181D01*
X126617077Y-87605666D01*
X126590719Y-87608500D01*
X126524352Y-87608500D01*
X126339197Y-87647855D01*
X126166269Y-87724848D01*
X126013129Y-87836110D01*
X125886466Y-87976783D01*
X125791820Y-88140715D01*
X125733326Y-88320742D01*
X125713540Y-88509000D01*
X125733326Y-88697257D01*
X125791820Y-88877284D01*
X125886466Y-89041216D01*
X126013129Y-89181889D01*
X126166269Y-89293151D01*
X126339197Y-89370144D01*
X126524352Y-89409500D01*
X126524354Y-89409500D01*
X126580719Y-89409500D01*
X126647758Y-89429185D01*
X126668400Y-89445819D01*
X127704624Y-90482043D01*
X127717562Y-90498191D01*
X127719658Y-90500160D01*
X127719660Y-90500162D01*
X127735917Y-90515428D01*
X127740746Y-90519963D01*
X127776140Y-90580204D01*
X127773348Y-90650017D01*
X127743543Y-90698036D01*
X126226954Y-92214625D01*
X126210806Y-92227563D01*
X126162646Y-92278847D01*
X126159941Y-92281639D01*
X126140377Y-92301204D01*
X126138003Y-92304264D01*
X126137984Y-92304286D01*
X126137879Y-92304423D01*
X126130317Y-92313274D01*
X126100306Y-92345233D01*
X126090606Y-92362877D01*
X126079928Y-92379133D01*
X126067592Y-92395036D01*
X126050185Y-92435262D01*
X126045047Y-92445750D01*
X126023927Y-92484166D01*
X126018919Y-92503670D01*
X126012619Y-92522069D01*
X126004625Y-92540541D01*
X126002604Y-92553305D01*
X125972673Y-92616439D01*
X125913361Y-92653369D01*
X125843498Y-92652369D01*
X125825522Y-92645232D01*
X125693640Y-92580541D01*
X125612000Y-92559403D01*
X125612000Y-93555027D01*
X125605552Y-93542078D01*
X125522666Y-93466516D01*
X125418080Y-93426000D01*
X125334198Y-93426000D01*
X125251750Y-93441412D01*
X125156390Y-93500457D01*
X125088799Y-93589962D01*
X125058105Y-93697840D01*
X122451133Y-93697840D01*
X122452951Y-93475999D01*
X124411999Y-93475999D01*
X124412000Y-93476000D01*
X125112000Y-93476000D01*
X125112000Y-92555528D01*
X125111999Y-92555528D01*
X124941469Y-92618685D01*
X124777498Y-92720890D01*
X124637464Y-92854003D01*
X124527087Y-93012585D01*
X124450893Y-93190137D01*
X124412000Y-93379395D01*
X124411999Y-93475999D01*
X122452951Y-93475999D01*
X122542343Y-82570145D01*
X122562576Y-82503273D01*
X122615753Y-82457952D01*
X122684990Y-82448576D01*
X122716774Y-82457886D01*
X122836435Y-82511163D01*
X123021590Y-82550519D01*
X123021592Y-82550519D01*
X123210886Y-82550519D01*
X123344379Y-82522144D01*
X123396041Y-82511163D01*
X123568968Y-82434170D01*
X123720957Y-82323744D01*
X123722108Y-82322908D01*
X123848771Y-82182235D01*
X123943417Y-82018303D01*
X123981114Y-81902284D01*
X124001912Y-81838275D01*
X124021698Y-81650019D01*
X124004928Y-81490459D01*
X124017498Y-81421730D01*
X124065230Y-81370707D01*
X124128249Y-81353499D01*
X124451795Y-81353499D01*
X124518834Y-81373184D01*
X124564589Y-81425988D01*
X124575116Y-81490459D01*
X124570540Y-81533998D01*
X124590326Y-81722257D01*
X124648820Y-81902284D01*
X124743466Y-82066216D01*
X124870129Y-82206889D01*
X125023269Y-82318151D01*
X125196197Y-82395144D01*
X125381352Y-82434500D01*
X125381354Y-82434500D01*
X125570648Y-82434500D01*
X125694084Y-82408262D01*
X125755803Y-82395144D01*
X125928730Y-82318151D01*
X126081871Y-82206888D01*
X126208533Y-82066216D01*
X126303179Y-81902284D01*
X126361674Y-81722256D01*
X126381460Y-81534000D01*
X126361674Y-81345744D01*
X126310523Y-81188318D01*
X126308528Y-81118477D01*
X126344608Y-81058644D01*
X126407309Y-81027816D01*
X126428454Y-81026000D01*
X127382035Y-81026000D01*
X127449074Y-81045685D01*
G37*
%TD.AperFunction*%
%TD*%
M02*
